<svg height="512pt" viewBox="0 -31 512 512" width="512pt" xmlns="http://www.w3.org/2000/svg"><path d="m32.871094 118.324219 26.230468 104.929687-30.871093 61.746094 22.5 45h-20.730469v30h30v60h-30v30h452v-30h-30v-60h30v-30h-20.730469l22.5-45-30.871093-61.746094 26.230468-104.929687c18.9375-5.308594 32.871094-22.714844 32.871094-43.324219 0-24.8125-20.1875-45-45-45s-45 20.1875-45 45c0 6.914062 1.570312 13.46875 4.371094 19.328125l-76.621094 75.855469-54.824219-102.648438c3.855469-6.632812 6.074219-14.328125 6.074219-22.535156 0-24.8125-20.1875-45-45-45s-45 20.1875-45 45c0 8.207031 2.21875 15.902344 6.074219 22.535156l-54.824219 102.644532-76.621094-75.851563c2.800782-5.859375 4.371094-12.414063 4.371094-19.328125 0-24.8125-20.1875-45-45-45s-45 20.1875-45 45c0 20.609375 13.933594 38.015625 32.871094 43.324219zm55.359375 166.675781-13.230469 26.460938-13.230469-26.460938 13.230469-26.460938zm1.769531 135v-60h332v60zm360.230469-135-13.230469 26.460938-13.230469-26.460938 13.230469-26.460938zm16.769531-225c8.269531 0 15 6.730469 15 15s-6.730469 15-15 15-15-6.730469-15-15 6.730469-15 15-15zm-211-30c8.269531 0 15 6.730469 15 15s-6.730469 15-15 15-15-6.730469-15-15 6.730469-15 15-15zm-86.25 189.820312 70.796875-132.554687c4.820313 1.769531 10.027344 2.734375 15.453125 2.734375s10.632812-.964844 15.453125-2.734375l70.796875 132.554687 105.300781-104.246093c.398438.191406.804688.367187 1.207031.546875l-25.910156 103.644531-32.617187 65.234375 22.5 45h-132.460938l22.5-45-46.769531-93.539062-46.769531 93.539062 22.5 45h-132.460938l22.5-45-32.617187-65.234375-25.910156-103.644531c.402343-.179688.8125-.355469 1.207031-.546875zm73.019531 65.179688 13.230469-26.460938 13.230469 26.460938-13.230469 26.460938zm-197.769531-225c8.269531 0 15 6.730469 15 15s-6.730469 15-15 15-15-6.730469-15-15 6.730469-15 15-15zm0 0"/></svg>